<svg xmlns="http://www.w3.org/2000/svg" viewBox="0 0 100 100" preserveAspectRatio="xMidYMid slice">
  <!-- Red background = 7 red stripes -->
  <rect width="100" height="100" fill="#B22234"/>
  <!-- 6 white stripes (stripe height = 100/13 = 7.6923) -->
  <g fill="#FFFFFF">
    <rect y="7.6923"  width="100" height="7.6923"/>
    <rect y="23.0769" width="100" height="7.6923"/>
    <rect y="38.4615" width="100" height="7.6923"/>
    <rect y="53.8462" width="100" height="7.6923"/>
    <rect y="69.2308" width="100" height="7.6923"/>
    <rect y="84.6154" width="100" height="7.6923"/>
  </g>
  <!-- Canton (7 stripes tall, 40% wide) -->
  <rect width="40" height="53.8462" fill="#3C3B6E"/>
  <!-- 50 stars: 9 rows alternating 6 and 5 -->
  <defs>
    <symbol id="star" viewBox="-5 -5 10 10" overflow="visible">
      <polygon fill="#FFFFFF" points="0,-4.7 1.07,-1.45 4.47,-1.45 1.73,0.55 2.76,3.8 0,1.85 -2.76,3.8 -1.73,0.55 -4.47,-1.45 -1.07,-1.45"/>
    </symbol>
  </defs>
  <g>
    <!-- Row 1 (y=2.99) — 6 stars -->
    <use href="#star" x="3.33"  y="2.99" width="3" height="3"/>
    <use href="#star" x="10"    y="2.99" width="3" height="3"/>
    <use href="#star" x="16.67" y="2.99" width="3" height="3"/>
    <use href="#star" x="23.33" y="2.99" width="3" height="3"/>
    <use href="#star" x="30"    y="2.99" width="3" height="3"/>
    <use href="#star" x="36.67" y="2.99" width="3" height="3"/>
    <!-- Row 2 (y=8.98) — 5 stars -->
    <use href="#star" x="6.67"  y="8.98" width="3" height="3"/>
    <use href="#star" x="13.33" y="8.98" width="3" height="3"/>
    <use href="#star" x="20"    y="8.98" width="3" height="3"/>
    <use href="#star" x="26.67" y="8.98" width="3" height="3"/>
    <use href="#star" x="33.33" y="8.98" width="3" height="3"/>
    <!-- Row 3 (y=14.96) — 6 stars -->
    <use href="#star" x="3.33"  y="14.96" width="3" height="3"/>
    <use href="#star" x="10"    y="14.96" width="3" height="3"/>
    <use href="#star" x="16.67" y="14.96" width="3" height="3"/>
    <use href="#star" x="23.33" y="14.96" width="3" height="3"/>
    <use href="#star" x="30"    y="14.96" width="3" height="3"/>
    <use href="#star" x="36.67" y="14.96" width="3" height="3"/>
    <!-- Row 4 (y=20.94) — 5 stars -->
    <use href="#star" x="6.67"  y="20.94" width="3" height="3"/>
    <use href="#star" x="13.33" y="20.94" width="3" height="3"/>
    <use href="#star" x="20"    y="20.94" width="3" height="3"/>
    <use href="#star" x="26.67" y="20.94" width="3" height="3"/>
    <use href="#star" x="33.33" y="20.94" width="3" height="3"/>
    <!-- Row 5 (y=26.92) — 6 stars -->
    <use href="#star" x="3.33"  y="26.92" width="3" height="3"/>
    <use href="#star" x="10"    y="26.92" width="3" height="3"/>
    <use href="#star" x="16.67" y="26.92" width="3" height="3"/>
    <use href="#star" x="23.33" y="26.92" width="3" height="3"/>
    <use href="#star" x="30"    y="26.92" width="3" height="3"/>
    <use href="#star" x="36.67" y="26.92" width="3" height="3"/>
    <!-- Row 6 (y=32.91) — 5 stars -->
    <use href="#star" x="6.67"  y="32.91" width="3" height="3"/>
    <use href="#star" x="13.33" y="32.91" width="3" height="3"/>
    <use href="#star" x="20"    y="32.91" width="3" height="3"/>
    <use href="#star" x="26.67" y="32.91" width="3" height="3"/>
    <use href="#star" x="33.33" y="32.91" width="3" height="3"/>
    <!-- Row 7 (y=38.89) — 6 stars -->
    <use href="#star" x="3.33"  y="38.89" width="3" height="3"/>
    <use href="#star" x="10"    y="38.89" width="3" height="3"/>
    <use href="#star" x="16.67" y="38.89" width="3" height="3"/>
    <use href="#star" x="23.33" y="38.89" width="3" height="3"/>
    <use href="#star" x="30"    y="38.89" width="3" height="3"/>
    <use href="#star" x="36.67" y="38.89" width="3" height="3"/>
    <!-- Row 8 (y=44.87) — 5 stars -->
    <use href="#star" x="6.67"  y="44.87" width="3" height="3"/>
    <use href="#star" x="13.33" y="44.87" width="3" height="3"/>
    <use href="#star" x="20"    y="44.87" width="3" height="3"/>
    <use href="#star" x="26.67" y="44.87" width="3" height="3"/>
    <use href="#star" x="33.33" y="44.87" width="3" height="3"/>
    <!-- Row 9 (y=50.86) — 6 stars -->
    <use href="#star" x="3.33"  y="50.86" width="3" height="3"/>
    <use href="#star" x="10"    y="50.86" width="3" height="3"/>
    <use href="#star" x="16.67" y="50.86" width="3" height="3"/>
    <use href="#star" x="23.33" y="50.86" width="3" height="3"/>
    <use href="#star" x="30"    y="50.86" width="3" height="3"/>
    <use href="#star" x="36.67" y="50.86" width="3" height="3"/>
  </g>
</svg>
